<svg width="19" height="13" xmlns="http://www.w3.org/2000/svg">
<path d="M1.2637 6.76H2.6637V1.92L2.7637 1.33L2.3637 1.8L1.2637 2.59L0.883702 2.08L3.0837 0.38H3.4437V6.76H4.8137V7.5H1.2637V6.76ZM9.09292 2.09C9.09292 2.44333 9.02625 2.80667 8.89292 3.18C8.76625 3.54667 8.59625 3.91667 8.38292 4.29C8.17625 4.66333 7.94292 5.03 7.68292 5.39C7.42292 5.74333 7.16292 6.08 6.90292 6.4L6.41292 6.83V6.87L7.05292 6.76H9.23292V7.5H5.25292V7.21C5.39959 7.05667 5.57625 6.86667 5.78292 6.64C5.98959 6.41333 6.20292 6.16333 6.42292 5.89C6.64959 5.61 6.86959 5.31667 7.08292 5.01C7.30292 4.69667 7.49959 4.38 7.67292 4.06C7.85292 3.74 7.99625 3.42333 8.10292 3.11C8.20959 2.79667 8.26292 2.5 8.26292 2.22C8.26292 1.89333 8.16959 1.62333 7.98292 1.41C7.79625 1.19 7.51292 1.08 7.13292 1.08C6.87959 1.08 6.63292 1.13333 6.39292 1.24C6.15292 1.34 5.94625 1.45667 5.77292 1.59L5.44292 1.02C5.67625 0.82 5.95292 0.663333 6.27292 0.549999C6.59292 0.436666 6.93625 0.38 7.30292 0.38C7.58959 0.38 7.84292 0.423333 8.06292 0.509999C8.28292 0.59 8.46959 0.706666 8.62292 0.86C8.77625 1.01333 8.89292 1.19667 8.97292 1.41C9.05292 1.61667 9.09292 1.84333 9.09292 2.09Z" fill="white"/>
</svg>
